<svg width="40" height="40" viewBox="0 0 40 40" fill="none" xmlns="http://www.w3.org/2000/svg">
<path fill-rule="evenodd" clip-rule="evenodd" d="M20.2055 26.0179C20.19 26.6658 20.2361 27.2219 20.9249 27.5035C20.9299 27.5004 20.9349 27.4972 20.9399 27.494C20.9795 27.5137 21.0023 27.525 21.0261 27.534C21.0587 27.5461 21.093 27.5537 21.1743 27.5717C22.3618 28.0223 23.6119 28.1932 24.8776 27.898C25.987 27.6494 26.112 27.7426 26.2683 28.8768C26.2995 29.1099 26.3151 29.343 26.2839 29.576C26.1432 30.7724 25.4088 31.5027 24.3463 31.9999C22.69 32.7923 22.565 33.072 22.7837 34.8744C22.7837 34.8926 22.7891 34.9054 22.7935 34.9161C22.7967 34.9236 22.7993 34.9301 22.7993 34.9365C22.815 35.1074 22.7993 35.2783 22.6743 35.3716C22.5337 35.4959 22.3462 35.4337 22.1899 35.3405C21.9087 35.1851 21.7055 34.9676 21.5024 34.7345C21.2887 34.5514 21.0846 34.3665 20.883 34.1839C20.2298 33.5922 19.6038 33.0251 18.7679 32.6214C18.7491 32.6121 18.7321 32.6038 18.7165 32.5963C18.703 32.5898 18.6905 32.5838 18.6788 32.5782C18.6131 32.547 18.5698 32.5264 18.5023 32.4816C18.0647 32.2174 17.5803 32.0621 17.0959 31.9222C15.5021 31.4406 14.5333 30.3063 13.8145 28.8924C13.6583 28.5816 13.6427 28.4107 14.0958 28.4262C14.8615 28.4418 15.5021 28.1621 16.0021 27.5717C16.566 26.7665 16.2603 26.0279 15.9515 25.282C15.9266 25.2218 15.9016 25.1615 15.8771 25.1012C15.7365 24.7283 15.6271 24.6506 15.2521 24.8681C14.0489 25.5829 12.8614 26.3597 11.7676 27.2298C11.33 27.5717 11.0957 27.5872 10.7206 27.1211C8.18927 23.998 7.56424 20.4554 8.18927 16.5866C8.21071 16.4544 8.23921 16.3234 8.26767 16.1925C8.34291 15.8467 8.41784 15.5023 8.36115 15.1416C8.22835 15.168 8.10965 15.2309 7.99188 15.2933C7.8325 15.3777 7.67481 15.4613 7.48611 15.4523C7.46314 15.4502 7.4399 15.4487 7.41664 15.4472C7.26579 15.4373 7.11419 15.4274 7.03297 15.2659C6.93988 15.0653 7.06245 14.926 7.17127 14.8024L7.1736 14.7997C7.34548 14.6133 7.57986 14.5045 7.81425 14.3958C9.60343 13.5567 11.3926 12.7138 13.1818 11.8708C14.9709 11.0279 16.76 10.185 18.5491 9.34603C18.846 9.19065 18.9554 9.03527 18.9242 8.72452C18.8926 8.37966 18.8752 8.04184 18.8577 7.70158C18.8492 7.53594 18.8406 7.36972 18.8304 7.20183C18.8148 6.93769 18.846 6.67355 19.1742 6.62694C19.5648 6.56479 19.6117 6.90662 19.6429 7.15522C19.6805 7.4166 19.6779 7.68796 19.6754 7.95331C19.6748 8.01918 19.6742 8.08474 19.6742 8.14963C19.6898 8.78667 19.7054 8.80221 20.2836 8.52253C21.7838 7.81551 23.2801 7.1085 24.7763 6.40148C26.2724 5.69457 27.7684 4.98766 29.2684 4.28076C29.2905 4.27035 29.3126 4.25985 29.3347 4.24934C29.6097 4.11873 29.8878 3.9867 30.2059 4.00108C30.2466 4.00445 30.291 4.00416 30.3362 4.00387C30.4992 4.00281 30.6727 4.00169 30.7216 4.17199C30.7997 4.42059 30.6278 4.60705 30.4091 4.74688C30.0128 5.00506 29.5687 5.10875 29.1186 5.21384C29.054 5.22892 28.9893 5.24403 28.9246 5.25963C28.5027 5.36839 28.2996 5.58592 28.2058 5.9899C27.8621 7.49705 27.5339 8.98866 27.3621 10.5113C26.9245 14.4268 27.4246 18.218 28.8621 21.8849C29.1142 22.517 29.4124 23.1338 29.7136 23.7568L29.7137 23.7571C29.8419 24.0221 29.9706 24.2884 30.0966 24.5574C30.0742 24.5611 30.0545 24.5648 30.037 24.5681C29.9813 24.5786 29.9485 24.5847 29.9247 24.5729C29.7684 24.5108 29.6122 24.4331 29.456 24.3554C26.659 22.8483 23.7056 22.3044 20.5649 22.9104C20.1586 22.9881 20.1117 23.1279 20.1273 23.4542C20.1742 24.3088 20.2211 25.1633 20.2055 26.0179ZM16.956 25.6744C16.9731 25.7751 16.9858 25.8502 16.9865 25.9186C17.2467 26.1739 17.2838 26.5255 17.3197 26.8672L17.3198 26.8678C17.3221 26.8892 17.3243 26.9107 17.3266 26.9321C17.3278 26.9433 17.3291 26.9545 17.3303 26.9657C17.3347 26.9701 17.3388 26.9863 17.343 27.0116C17.346 27.0092 17.3489 27.0068 17.352 27.0044C17.3551 27.0019 17.3583 26.9993 17.3616 26.9968C17.5062 27.0567 17.5578 27.1813 17.6098 27.3064C17.6252 27.3436 17.6406 27.3807 17.6585 27.4163C17.7371 27.5779 17.8153 27.7395 17.8934 27.9009C18.281 28.7019 18.6669 29.4993 19.096 30.2752C19.8773 31.7047 20.893 32.9632 21.9868 34.2839C21.8149 33.0099 22.4556 32.2796 23.4087 31.7513C23.69 31.5959 23.9869 31.4406 24.2994 31.3318C25.1432 31.0521 25.5495 30.4617 25.6745 29.6071C25.8307 28.5039 25.7057 28.3641 24.6432 28.4418C24.6119 28.4573 24.565 28.4573 24.5338 28.4573C22.0649 28.7836 19.9711 27.9757 18.0647 26.484L18.0491 26.4716C17.9248 26.373 17.7861 26.2629 17.7467 26.096C17.45 25.9707 17.1942 25.7726 16.9241 25.4741C16.9352 25.5514 16.9463 25.6171 16.956 25.6744ZM19.6117 23.4853V26.6239C18.7523 25.9558 18.0022 25.1478 17.346 24.2311C17.2522 24.0757 17.2522 23.9669 17.4553 23.8737C18.0491 23.6251 18.6429 23.3765 19.2523 23.2056C19.5179 23.1279 19.6117 23.2522 19.6117 23.4853Z" fill="black"/>
<path d="M27.3465 5.89667C23.5494 7.66796 19.7992 9.43925 16.049 11.195C13.9239 12.1894 11.8145 13.1838 9.68936 14.1627C9.31435 14.3336 9.12684 14.5667 9.04871 14.9707C8.65807 16.8973 8.36118 18.8395 8.50181 20.8128C8.64244 22.8327 9.3456 24.6195 10.7363 26.1267C11.0019 26.4064 11.1738 26.4374 11.5176 26.2199C12.6583 25.4586 13.8927 24.8837 15.1115 24.2622C15.424 24.1068 15.5646 23.9825 15.4709 23.563C14.9552 21.5275 14.5958 19.461 14.424 17.379C14.3771 16.8662 14.3927 16.369 14.5021 15.8718C14.549 15.6543 14.6271 15.4523 14.8927 15.4368C15.1896 15.4057 15.3146 15.6232 15.3615 15.8563C15.4084 16.1049 15.424 16.3535 15.424 16.6021C15.4553 18.7618 15.7053 20.906 16.1272 23.0192C16.2678 23.7183 16.2834 23.7183 16.9397 23.4697C19.6117 22.4753 22.3618 22.0247 25.2057 22.2578C25.9558 22.32 26.7058 22.4909 27.4402 22.6618C28.2527 22.8327 28.2684 22.8638 28.034 22.0714C27.7058 20.9371 27.409 19.7873 27.1589 18.6375C26.3152 14.5356 26.3308 10.4647 27.3152 6.39387C27.3621 6.25403 27.4246 6.09866 27.3465 5.89667Z" fill="#FDFDFD"/>
<path d="M16.8616 25.8159C17.0178 26.2199 17.1585 26.6239 17.3147 27.0279C18.0179 28.4573 18.6585 29.9023 19.518 31.2541C20.268 32.4505 21.1587 33.5381 22.1275 34.5947C22.0337 33.8644 22.0962 33.2118 22.5806 32.6214C23.0337 32.0776 23.6432 31.7513 24.2838 31.5182C25.7839 30.99 25.9558 30.0266 25.8464 28.5816C25.8151 28.1776 25.5964 28.1621 25.237 28.2243C22.4087 28.7525 20.143 28.1 18.0179 26.2354C17.8616 26.0801 17.8616 26.0801 17.7054 25.9247C17.3929 25.6916 17.1741 25.3964 16.8303 25.1478C16.6272 25.4275 16.7678 25.6139 16.8616 25.8159Z" fill="#F5A02C"/>
<path d="M16.6897 27.2765C15.8928 28.3175 15.8928 28.3175 14.2521 28.8613C14.6427 30.1665 15.6271 30.9123 16.7678 31.4406C17.7835 31.9222 18.9242 32.1553 19.9555 32.6991C18.6742 31.021 17.5647 29.2497 16.6897 27.2765Z" fill="#F4A02A"/>
<path d="M23.2212 35.0142C23.1587 35.0608 23.0806 34.9987 23.0962 34.9365C23.2212 34.3772 23.815 32.637 26.0339 32.7768C26.0339 32.7768 26.7058 32.7923 26.362 33.3983C26.1901 33.6158 26.1276 34.2684 26.9245 33.7867C27.7527 33.2895 28.2527 33.7712 28.2527 33.7712C28.2527 33.7712 28.3777 33.8333 28.3465 34.2063C28.3465 34.2063 28.3621 34.5481 28.8621 34.3616C28.8621 34.3616 29.534 34.0975 29.7059 34.6258C29.7059 34.6258 29.8153 35.123 30.4247 35.0297C30.4247 35.0297 31.8935 34.8899 32.9717 35.2473C33.0186 35.2628 33.0029 35.325 32.9561 35.325C32.3779 35.2783 30.9872 35.2317 29.8622 35.5425C29.8622 35.5425 29.4715 35.6202 29.284 35.325C29.284 35.325 29.0965 34.9676 28.534 35.2317C27.9715 35.4803 27.6902 35.4493 27.5964 35.2007C27.5027 34.9521 27.4558 34.4082 26.5651 34.7811C26.1276 34.9521 25.7995 35.2628 25.2213 35.3871C24.565 35.5269 24.9088 34.9365 25.0963 34.6413C25.2838 34.3461 25.2838 34.3306 25.2838 34.3306C25.2838 34.3306 25.5338 33.9576 25.0807 33.9887C24.6276 34.0198 24.1275 33.9421 23.7994 34.3616C23.7994 34.3461 23.4869 34.7967 23.2212 35.0142Z" fill="#2195D0"/>
<path d="M21.1274 35.3094C21.1587 35.325 21.1899 35.3094 21.1899 35.2783C21.1118 34.9365 20.2992 33.4915 18.2523 33.4604C18.2523 33.4604 17.6741 33.4604 18.0179 33.9421C18.1585 34.2063 18.7523 35.2783 17.3928 34.3772C16.3303 33.678 15.5021 34.1907 15.7365 34.4393C15.7365 34.4393 16.2209 35.0608 16.2053 35.3405C15.7678 35.325 15.4865 35.154 15.1427 34.9676C15.0959 34.9365 15.0334 34.9054 14.9865 34.8899C14.6583 34.7656 14.3302 34.7967 14.0802 34.9831C13.9864 35.0453 13.9239 35.1385 13.8614 35.2162C13.7677 35.3871 13.502 35.6202 13.0489 35.558C12.8145 35.5425 12.2051 35.3716 11.8457 35.4493C11.8145 35.4493 11.8145 35.4959 11.8457 35.5114C12.8145 35.7911 13.5333 36.366 14.0802 35.6668C14.4552 35.3094 14.8771 35.4337 15.0021 35.4959C15.0021 35.4959 15.3771 35.6823 15.9397 35.8843C16.7366 36.164 17.0178 35.8532 17.0335 35.6202C17.0491 35.4026 17.0022 34.921 17.8929 35.2317C18.3304 35.3716 18.4398 35.5736 19.0179 35.6668C19.6742 35.7756 19.5648 35.4959 19.3773 35.2473C19.3148 35.1696 19.2836 35.1074 19.2523 35.0453C19.1898 34.921 19.1742 34.7501 19.2367 34.6258C19.2836 34.5325 19.3617 34.4549 19.5336 34.4393C19.8773 34.4393 20.2055 34.5792 20.4399 34.7345C20.5336 34.7967 20.5961 34.8588 20.6743 34.9365C20.7524 35.0297 20.9243 35.2162 21.1274 35.3094Z" fill="#2195D0"/>
</svg>
