<svg width="32" height="32" viewBox="0 0 32 32" fill="none" xmlns="http://www.w3.org/2000/svg">
<path fill-rule="evenodd" clip-rule="evenodd" d="M14.3149 6.75736C15.403 5.63214 16.8788 5 18.4176 5H21.3187C21.8528 5 22.2858 5.44772 22.2858 6V10C22.2858 10.5523 21.8528 11 21.3187 11L18.4176 11V13H21.3187C21.6165 13 21.8977 13.1419 22.081 13.3846C22.2642 13.6273 22.3291 13.9438 22.2569 14.2425L21.2899 18.2425C21.1822 18.6877 20.7955 19 20.3517 19H18.4176V26C18.4176 26.5523 17.9847 27 17.4506 27H13.5825C13.0484 27 12.6155 26.5523 12.6155 26V19H10.6814C10.1473 19 9.71436 18.5523 9.71436 18V14C9.71436 13.4477 10.1473 13 10.6814 13H12.6155V11C12.6155 9.4087 13.2268 7.88258 14.3149 6.75736ZM18.4176 7C17.3918 7 16.4079 7.42143 15.6825 8.17157C14.9571 8.92172 14.5495 9.93913 14.5495 11V14C14.5495 14.5523 14.1166 15 13.5825 15H11.6484V17H13.5825C14.1166 17 14.5495 17.4477 14.5495 18V25H16.4836V18C16.4836 17.4477 16.9165 17 17.4506 17H19.5967L20.0802 15H17.4506C16.9165 15 16.4836 14.5523 16.4836 14V11C16.4836 10.4696 16.6873 9.96086 17.0501 9.58579C17.4128 9.21071 17.9047 9 18.4176 9H20.3517V7H18.4176Z" fill="black"/>
</svg>
