<svg width="32" height="32" viewBox="0 0 32 32" fill="none" xmlns="http://www.w3.org/2000/svg">
<path fill-rule="evenodd" clip-rule="evenodd" d="M5 11.0014C5 7.6869 7.6869 5 11.0014 5H21.0014C24.3158 5 27.0027 7.6869 27.0027 11.0014V21.0014C27.0027 24.3158 24.3158 27.0027 21.0014 27.0027H11.0014C7.6869 27.0027 5 24.3158 5 21.0014V11.0014ZM11.0016 7.00274C8.79318 7.00274 7.00293 8.79299 7.00293 11.0014V21.0014C7.00293 23.2098 8.79318 25 11.0016 25H21.0016C23.2099 25 25.0002 23.2098 25.0002 21.0014V11.0014C25.0002 8.79299 23.2099 7.00274 21.0016 7.00274H11.0016ZM16.7786 11.0108C15.738 10.8565 14.6753 11.0343 13.7415 11.5188C12.8078 12.0033 12.0506 12.7699 11.5776 13.7095C11.1047 14.6492 10.94 15.7141 11.1072 16.7527C11.2743 17.7913 11.7647 18.7508 12.5085 19.4946C13.2524 20.2385 14.2118 20.7288 15.2505 20.896C16.2891 21.0631 17.3539 20.8985 18.2936 20.4255C19.2332 19.9526 19.9998 19.1953 20.4844 18.2616C20.9689 17.3278 21.1466 16.2651 20.9923 15.2245C20.8349 14.163 20.3403 13.1804 19.5815 12.4216C18.8228 11.6628 17.8401 11.1682 16.7786 11.0108ZM20.5002 10.5014C20.5002 9.94833 20.9485 9.5 21.5016 9.5H21.5116C22.0646 9.5 22.5129 9.94833 22.5129 10.5014C22.5129 11.0544 22.0646 11.5027 21.5116 11.5027H21.5016C20.9485 11.5027 20.5002 11.0544 20.5002 10.5014ZM14.6639 13.2965C15.2238 13.006 15.861 12.8994 16.4849 12.9919C17.1213 13.0863 17.7105 13.3828 18.1654 13.8378C18.6203 14.2927 18.9168 14.8819 19.0112 15.5183C19.1037 16.1422 18.9972 16.7793 18.7067 17.3392C18.4162 17.899 17.9566 18.353 17.3932 18.6366C16.8298 18.9202 16.1913 19.0189 15.5686 18.9187C14.9459 18.8185 14.3707 18.5245 13.9247 18.0785C13.4787 17.6325 13.1847 17.0572 13.0845 16.4345C12.9843 15.8118 13.083 15.1733 13.3665 14.61C13.6501 14.0466 14.1041 13.5869 14.6639 13.2965Z" fill="black"/>
</svg>
